 <svg width="12" height="13" viewBox="0 0 12 13" fill="none" xmlns="http://www.w3.org/2000/svg">
                        <path fill-rule="evenodd" clip-rule="evenodd" d="M10.5455 2.81818H9.63636H8.27272V1.45454C8.27274 1.20363 8.06956 1 7.81818 1H4.18182C3.93046 1 3.72728 1.20363 3.72728 1.45454V2.81818H2.36364H1.45454C1.20318 2.81818 1 3.02181 1 3.27272C1 3.52363 1.20316 3.72728 1.45454 3.72728H1.90908V10.5455C1.90908 11.2973 2.52091 11.9091 3.27272 11.9091H8.72728C9.47909 11.9091 10.0909 11.2973 10.0909 10.5455V3.72728H10.5455C10.7968 3.72728 11 3.52365 11 3.27274C11 3.02183 10.7968 2.81818 10.5455 2.81818ZM4.63636 1.9091H7.36364V2.8182H4.63636V1.9091ZM8.72728 11C8.97819 11 9.18182 10.7959 9.18182 10.5455H9.18184V3.72728H7.8182H4.18182H2.81818V10.5455C2.81818 10.7959 3.02181 11 3.27272 11H8.72728ZM4.63636 4.63638C4.385 4.63638 4.18182 4.84001 4.18182 5.09092V9.18184C4.18182 9.43275 4.385 9.63638 4.63636 9.63638C4.88772 9.63638 5.0909 9.43275 5.0909 9.18184V5.09092C5.0909 4.84001 4.88772 4.63638 4.63636 4.63638ZM6.9091 5.09092C6.9091 4.84001 7.11228 4.63638 7.36364 4.63638C7.615 4.63638 7.81818 4.84001 7.81818 5.09092V9.18184C7.81818 9.43275 7.615 9.63638 7.36364 9.63638C7.11228 9.63638 6.9091 9.43275 6.9091 9.18184V5.09092Z" fill="#6D8790"/>
                        <path d="M8.27272 2.81818H8.12272V2.96818H8.27272V2.81818ZM8.27272 1.45454L8.12272 1.45453V1.45454H8.27272ZM3.72728 2.81818V2.96818H3.87728V2.81818H3.72728ZM1.90908 3.72728H2.05908V3.57728H1.90908V3.72728ZM10.0909 3.72728V3.57728H9.94092V3.72728H10.0909ZM7.36364 1.9091H7.51364V1.7591H7.36364V1.9091ZM4.63636 1.9091V1.7591H4.48636V1.9091H4.63636ZM7.36364 2.8182V2.9682H7.51364V2.8182H7.36364ZM4.63636 2.8182H4.48636V2.9682H4.63636V2.8182ZM9.18182 10.5455V10.3955H9.03182V10.5455H9.18182ZM9.18184 10.5455V10.6955H9.33184V10.5455H9.18184ZM9.18184 3.72728H9.33184V3.57728H9.18184V3.72728ZM2.81818 3.72728V3.57728H2.66818V3.72728H2.81818ZM9.63636 2.96818H10.5455V2.66818H9.63636V2.96818ZM8.27272 2.96818H9.63636V2.66818H8.27272V2.96818ZM8.12272 1.45454V2.81818H8.42272V1.45454H8.12272ZM7.81818 1.15C7.98663 1.15 8.12273 1.28638 8.12272 1.45453L8.42272 1.45455C8.42275 1.12088 8.15249 0.85 7.81818 0.85V1.15ZM4.18182 1.15H7.81818V0.85H4.18182V1.15ZM3.87728 1.45454C3.87728 1.28638 4.0134 1.15 4.18182 1.15V0.85C3.84752 0.85 3.57728 1.12088 3.57728 1.45454H3.87728ZM3.87728 2.81818V1.45454H3.57728V2.81818H3.87728ZM2.36364 2.96818H3.72728V2.66818H2.36364V2.96818ZM1.45454 2.96818H2.36364V2.66818H1.45454V2.96818ZM1.15 3.27272C1.15 3.10456 1.28612 2.96818 1.45454 2.96818V2.66818C1.12024 2.66818 0.85 2.93906 0.85 3.27272H1.15ZM1.45454 3.57728C1.28611 3.57728 1.15 3.4409 1.15 3.27272H0.85C0.85 3.60636 1.12021 3.87728 1.45454 3.87728V3.57728ZM1.90908 3.57728H1.45454V3.87728H1.90908V3.57728ZM2.05908 10.5455V3.72728H1.75908V10.5455H2.05908ZM3.27272 11.7591C2.60375 11.7591 2.05908 11.2145 2.05908 10.5455H1.75908C1.75908 11.3801 2.43806 12.0591 3.27272 12.0591V11.7591ZM8.72728 11.7591H3.27272V12.0591H8.72728V11.7591ZM9.94092 10.5455C9.94092 11.2145 9.39625 11.7591 8.72728 11.7591V12.0591C9.56194 12.0591 10.2409 11.3801 10.2409 10.5455H9.94092ZM9.94092 3.72728V10.5455H10.2409V3.72728H9.94092ZM10.5455 3.57728H10.0909V3.87728H10.5455V3.57728ZM10.85 3.27274C10.85 3.4409 10.7139 3.57728 10.5455 3.57728V3.87728C10.8798 3.87728 11.15 3.6064 11.15 3.27274H10.85ZM10.5455 2.96818C10.7139 2.96818 10.85 3.10456 10.85 3.27274H11.15C11.15 2.9391 10.8798 2.66818 10.5455 2.66818V2.96818ZM7.36364 1.7591H4.63636V2.0591H7.36364V1.7591ZM7.51364 2.8182V1.9091H7.21364V2.8182H7.51364ZM4.63636 2.9682H7.36364V2.6682H4.63636V2.9682ZM4.48636 1.9091V2.8182H4.78636V1.9091H4.48636ZM9.03182 10.5455C9.03182 10.7132 8.89525 10.85 8.72728 10.85V11.15C9.06113 11.15 9.33182 10.8787 9.33182 10.5455H9.03182ZM9.18184 10.3955H9.18182V10.6955H9.18184V10.3955ZM9.03184 3.72728V10.5455H9.33184V3.72728H9.03184ZM7.8182 3.87728H9.18184V3.57728H7.8182V3.87728ZM4.18182 3.87728H7.8182V3.57728H4.18182V3.87728ZM2.81818 3.87728H4.18182V3.57728H2.81818V3.87728ZM2.96818 10.5455V3.72728H2.66818V10.5455H2.96818ZM3.27272 10.85C3.10475 10.85 2.96818 10.7132 2.96818 10.5455H2.66818C2.66818 10.8787 2.93887 11.15 3.27272 11.15V10.85ZM8.72728 10.85H3.27272V11.15H8.72728V10.85ZM4.33182 5.09092C4.33182 4.92276 4.46794 4.78638 4.63636 4.78638V4.48638C4.30206 4.48638 4.03182 4.75726 4.03182 5.09092H4.33182ZM4.33182 9.18184V5.09092H4.03182V9.18184H4.33182ZM4.63636 9.48638C4.46794 9.48638 4.33182 9.35 4.33182 9.18184H4.03182C4.03182 9.5155 4.30206 9.78638 4.63636 9.78638V9.48638ZM4.9409 9.18184C4.9409 9.35 4.80478 9.48638 4.63636 9.48638V9.78638C4.97066 9.78638 5.2409 9.5155 5.2409 9.18184H4.9409ZM4.9409 5.09092V9.18184H5.2409V5.09092H4.9409ZM4.63636 4.78638C4.80478 4.78638 4.9409 4.92276 4.9409 5.09092H5.2409C5.2409 4.75726 4.97066 4.48638 4.63636 4.48638V4.78638ZM7.36364 4.48638C7.02934 4.48638 6.7591 4.75726 6.7591 5.09092H7.0591C7.0591 4.92276 7.19522 4.78638 7.36364 4.78638V4.48638ZM7.96818 5.09092C7.96818 4.75726 7.69794 4.48638 7.36364 4.48638V4.78638C7.53206 4.78638 7.66818 4.92276 7.66818 5.09092H7.96818ZM7.96818 9.18184V5.09092H7.66818V9.18184H7.96818ZM7.36364 9.78638C7.69794 9.78638 7.96818 9.5155 7.96818 9.18184H7.66818C7.66818 9.35 7.53206 9.48638 7.36364 9.48638V9.78638ZM6.7591 9.18184C6.7591 9.5155 7.02934 9.78638 7.36364 9.78638V9.48638C7.19522 9.48638 7.0591 9.35 7.0591 9.18184H6.7591ZM6.7591 5.09092V9.18184H7.0591V5.09092H6.7591Z" fill="#6D8790"/>
                    </svg>